<svg version="1.1" xmlns="http://www.w3.org/2000/svg" viewBox="0 0 32 32">
<path fill="#ff3e3e" d="M15.612 25.64c3.688 0 6.599-2.911 6.599-6.599 0-1.941-0.259-3.752-0.776-5.564-1.423 1.876-3.947 3.041-6.405 3.558s-3.882 2.006-3.882 4.27c0 2.394 2.006 4.335 4.464 4.335zM18.070 0.343c5.37 4.335 8.993 10.999 8.993 18.439 0 6.082-4.982 10.999-11.063 10.999s-11.063-4.917-11.063-10.999c0-4.658 1.682-8.993 4.464-12.293v0.518c0 2.847 2.135 5.111 4.982 5.111s4.723-2.264 4.723-5.111c0-2.976-1.035-6.664-1.035-6.664z"></path>
</svg>
